<svg xmlns="http://www.w3.org/2000/svg" width="960" height="720" viewBox="0 0 320 240">
  <rect width="320" height="240" rx="6" fill="#000"/>
  <rect width="320" height="42" fill="#08202b"/>
  <path d="M0 40h320" stroke="#0099ff" stroke-width="2"/>
  <g transform="translate(22 20)" stroke="#ffe600" stroke-width="2.5">
    <circle r="8" fill="#ffe600"/><path d="M0-14v4M0 10v4M-14 0h4M10 0h4M-10-10l3 3M7 7l3 3M10-10l-3 3M-7 7l-3 3"/>
  </g>
  <g font-family="Arial,sans-serif" font-weight="700">
    <text x="45" y="29" font-size="24" fill="#fff">29 C</text>
    <text x="310" y="29" text-anchor="end" font-size="24" fill="#fff">23:40</text>
    <circle cx="48" cy="88" r="36" fill="#003d16"/>
    <circle cx="48" cy="88" r="29" fill="#00dd45" stroke="#fff" stroke-width="2"/>
    <text x="94" y="82" font-size="25" fill="#fff">PORTAIL</text>
    <text x="94" y="113" font-size="25" fill="#00e547">FERMÉ</text>
    <rect x="3" y="138" width="155" height="64" rx="8" fill="#ffe100" stroke="#fff" stroke-width="2"/>
    <circle cx="28" cy="158" r="7" fill="#000"/><path d="M28 166v15m0-10-11 8m11-8 11 8m-11 1-9 15m9-15 9 15" stroke="#000" stroke-width="5" stroke-linecap="round"/>
    <text x="103" y="178" text-anchor="middle" font-size="22" fill="#000">PIÉTON</text>
    <rect x="162" y="138" width="155" height="64" rx="8" fill="#0099ff" stroke="#fff" stroke-width="2"/>
    <path d="M174 170h33v17h-33zM180 170l6-10h12l7 10" fill="#000"/><circle cx="181" cy="188" r="5"/><circle cx="201" cy="188" r="5"/>
    <text x="267" y="178" text-anchor="middle" font-size="20" fill="#000">VOITURE</text>
  </g>
  <rect y="207" width="320" height="33" fill="#08202b"/>
  <path d="M0 208h320" stroke="#0099ff" stroke-width="2"/>
  <g font-family="Arial,sans-serif" font-weight="700" font-size="12" fill="#fff">
    <circle cx="13" cy="224" r="6" fill="#00dd45"/><text x="23" y="228">WiFi</text>
    <circle cx="91" cy="224" r="6" fill="#00dd45"/><text x="101" y="228">API</text>
    <text x="310" y="228" text-anchor="end">MAJ 23:39</text>
  </g>
</svg>
